<?xml version="1.0" ?><svg viewBox="0 0 100 100" xmlns="http://www.w3.org/2000/svg"><title/><circle cx="50" cy="50" fill="#e6e6e6" r="49.5"/><path d="M81.125,40.3954a4,4,0,0,0-1.30816-2.95872L57.53674,17.16631a11.58324,11.58324,0,0,0-15.07349,0L20.19819,37.4252a4,4,0,0,0-1.308,2.94764l-.0152,5.56062h62.25Z" fill="#2b687f"/><path d="M81.105,42.611l-1.1734-.95526L81.08,40.611H78.64844L52.93768,19.67925a4.653,4.653,0,0,0-5.87537,0L21.35162,40.611H18.92l1.14862,1.04456L18.895,42.611h2.2243l20.5307,18.67a12.81681,12.81681,0,0,0,16.71,0l20.52167-18.67Z" fill="#ffab80"/><rect fill="#fff" height="44.41667" width="44.41667" x="27.79167" y="25.62096"/><path d="M50,30.2508A11.12195,11.12195,0,1,0,61.12195,41.37275,11.12194,11.12194,0,0,0,50,30.2508Zm7.1604,8.817L49.804,46.4242a1.99927,1.99927,0,0,1-2.82812,0l-3.24414-3.24414a1.99979,1.99979,0,0,1,2.82813-2.82812L48.38989,42.182l5.94238-5.94238a1.99979,1.99979,0,0,1,2.82813,2.82813Z" fill="#4d4d4d"/><path d="M81.09064,40.611l-.00079-.2381-4.219-1.19275L78.62842,40.611c.58081.76178.02063,2.30829-.89142,3.02185l.01184.00421L58.355,61.28094a12.81681,12.81681,0,0,1-16.71,0L22.23944,43.63409l.0036-.00128c-.912-.71356-1.47223-2.26007-.89142-3.02185l1.75757-1.43085-4.219,1.19275-.00079.2381H18.875v39.01h62.25V40.611Z" fill="#2b687f"/><path d="M80,79.621H20L42.731,58.93819a11.1717,11.1717,0,0,1,14.538,0Z" fill="#10556b"/></svg>