<svg width="28" height="29" viewBox="0 0 28 29" fill="none" xmlns="http://www.w3.org/2000/svg">
<path d="M5.55742 10.118L8.38367 12.3492M5.53116 19.3055L8.36616 17.0742M18.2362 20.128L21.0624 22.3592M24.5624 14.738C24.5605 15.3252 24.5048 15.9109 24.3962 16.488C24.0119 18.6595 22.9232 20.644 21.2982 22.1348C19.6732 23.6257 17.6024 24.5397 15.4059 24.7358C13.2093 24.9319 11.0094 24.3991 9.14599 23.2197C7.2826 22.0404 5.85953 20.2801 5.09672 18.2109C4.33391 16.1418 4.27383 13.8791 4.92576 11.7724C5.57769 9.66567 6.90535 7.83235 8.70353 6.55574C10.5017 5.27914 12.6703 4.63033 14.8741 4.70958C17.078 4.78884 19.1943 5.59175 20.8962 6.99423L18.4287 9.48798C17.2987 8.63093 15.9181 8.16969 14.4999 8.17548C13.277 8.1741 12.078 8.51446 11.0383 9.15817C9.99847 9.80187 9.15923 10.7233 8.6152 11.8185C8.07116 12.9138 7.84399 14.1392 7.95929 15.3567C8.07459 16.5742 8.52778 17.7352 9.26774 18.7088C10.0077 19.6825 11.005 20.43 12.1471 20.867C13.2893 21.3041 14.5308 21.4133 15.7317 21.1824C16.9326 20.9515 18.0451 20.3896 18.9437 19.5601C19.8423 18.7307 20.4913 17.6666 20.8174 16.488H14.9374V12.988H24.3962C24.5004 13.5656 24.556 14.151 24.5624 14.738Z" stroke="white" stroke-linecap="round" stroke-linejoin="round"/>
</svg>
