<svg width="30" height="30" viewBox="0 0 30 30" fill="none" xmlns="http://www.w3.org/2000/svg">
<rect width="30" height="30" rx="10" fill="#6979F8"/>
<path d="M9.75 21.7501H20.25C21.0784 21.7501 21.75 21.0785 21.75 20.2501V9.75006C21.75 8.92163 21.0784 8.25006 20.25 8.25006H9.75C8.92157 8.25006 8.25 8.92163 8.25 9.75006V20.2501C8.25 21.0785 8.92157 21.7501 9.75 21.7501ZM9.75 21.7501L18 13.5001L21.75 17.2501M13.5 12.3751C13.5 12.9964 12.9963 13.5001 12.375 13.5001C11.7537 13.5001 11.25 12.9964 11.25 12.3751C11.25 11.7537 11.7537 11.2501 12.375 11.2501C12.9963 11.2501 13.5 11.7537 13.5 12.3751Z" stroke="white" stroke-linecap="round" stroke-linejoin="round"/>
</svg>
