<svg width="30" height="30" viewBox="0 0 30 30" fill="none" xmlns="http://www.w3.org/2000/svg">
<path d="M30 15C30 23.2843 23.2843 30 15 30C6.71573 30 0 23.2843 0 15C0 6.71573 6.71573 0 15 0C23.2843 0 30 6.71573 30 15Z" fill="#6979F8"/>
<path d="M8.03819 5C8.08536 5.0339 8.10675 5.08118 8.14336 5.0997C8.70123 5.3819 9.26143 5.6597 9.82042 5.93978C10.9037 6.48255 11.9863 7.02664 13.0698 7.56909C13.5761 7.8226 14.0846 8.07189 14.5906 8.32603C15.6438 8.85493 16.6954 9.3866 17.7485 9.91547C18.2546 10.1696 18.7634 10.4185 19.2696 10.6724C20.3173 11.1977 21.3641 11.7247 22.4111 12.2512C23.4294 12.7633 24.4474 13.2758 25.4657 13.7877C25.838 13.9748 26.2143 14.1546 26.5822 14.3495C26.8395 14.4858 27.0039 14.6871 26.9999 14.9965C26.996 15.3028 26.8617 15.5179 26.5837 15.6555C25.8186 16.0344 25.0543 16.4151 24.2905 16.7964C23.2355 17.3231 22.1807 17.8503 21.1266 18.3786C20.1018 18.8923 19.0782 19.4083 18.0535 19.922C16.9998 20.4503 15.9451 20.9765 14.8915 21.5049C13.8726 22.0159 12.8551 22.5295 11.8361 23.0404C10.7761 23.5719 9.71433 24.1 8.6554 24.6335C8.44191 24.741 8.23774 24.8663 8.04308 24.9928C7.8296 25.0023 7.60231 25.0023 7.36983 24.9932C7.08576 24.8012 6.97022 24.5429 7.02026 24.2227C7.06347 23.9463 7.11986 23.6714 7.182 23.3984C7.47326 22.1186 7.76817 20.8395 8.06248 19.5604C8.27394 18.6413 8.4843 17.7219 8.70274 16.8044C8.72031 16.7306 8.78717 16.623 8.84758 16.6111C9.31461 16.5193 9.78553 16.4462 10.2556 16.3692C10.9127 16.2616 11.5706 16.1591 12.2271 16.048C12.7991 15.9512 13.3691 15.8427 13.9409 15.7446C14.5191 15.6454 15.0985 15.5532 15.6772 15.4571C16.2757 15.3577 16.8742 15.2585 17.4722 15.1566C17.7293 15.1129 17.9852 15.0627 18.2417 15.0154C18.05 14.9494 17.8606 14.9154 17.6706 14.8843C17.1039 14.7915 16.5364 14.7036 15.9704 14.6068C15.2379 14.4815 14.5074 14.3453 13.7747 14.2215C13.0408 14.0975 12.3047 13.9861 11.5706 13.8635C10.7409 13.7249 9.91146 13.5842 9.08386 13.4341C8.92964 13.4061 8.73355 13.4404 8.69123 13.1859C8.61718 12.7404 8.50922 12.3001 8.40762 11.8594C8.15998 10.7851 7.90757 9.71187 7.65759 8.63811C7.44677 7.73257 7.22257 6.82966 7.03386 5.91972C6.96724 5.59847 6.967 5.25283 7.3359 5.05354C7.34407 5.04913 7.33738 5.01843 7.33762 5C7.56491 5 7.7922 5 8.03819 5Z" fill="white"/>
</svg>
