<svg width="20" height="20" viewBox="0 0 20 20" fill="none" xmlns="http://www.w3.org/2000/svg">
<path d="M1.03819 0C1.08536 0.0339014 1.10675 0.0811803 1.14336 0.0996995C1.70123 0.381895 2.26143 0.6597 2.82042 0.939778C3.90371 1.48255 4.9863 2.02664 6.06976 2.56909C6.57609 2.8226 7.08464 3.07189 7.59065 3.32603C8.64375 3.85493 9.6954 4.3866 10.7485 4.91547C11.2546 5.16962 11.7634 5.4185 12.2696 5.67235C13.3173 6.19771 14.3641 6.72467 15.4111 7.2512C16.4294 7.76326 17.4474 8.27578 18.4657 8.78771C18.838 8.97484 19.2143 9.15458 19.5822 9.34947C19.8395 9.4858 20.0039 9.68711 19.9999 9.99655C19.996 10.3028 19.8617 10.5179 19.5837 10.6555C18.8186 11.0344 18.0543 11.4151 17.2905 11.7964C16.2355 12.3231 15.1807 12.8503 14.1266 13.3786C13.1018 13.8923 12.0782 14.4083 11.0535 14.922C9.99982 15.4503 8.94506 15.9765 7.8915 16.5049C6.87261 17.0159 5.85505 17.5295 4.83611 18.0404C3.77613 18.5719 2.71433 19.1 1.6554 19.6335C1.44191 19.741 1.23774 19.8663 1.04308 19.9928C0.829601 20.0023 0.60231 20.0023 0.369831 19.9932C0.0857648 19.8012 -0.0297812 19.5429 0.0202624 19.2227C0.0634661 18.9463 0.119857 18.6714 0.181997 18.3984C0.47326 17.1186 0.768173 15.8395 1.06248 14.5604C1.27394 13.6413 1.4843 12.7219 1.70274 11.8044C1.72031 11.7306 1.78717 11.623 1.84758 11.6111C2.31461 11.5193 2.78553 11.4462 3.25557 11.3692C3.91265 11.2616 4.57062 11.1591 5.22708 11.048C5.79913 10.9512 6.3691 10.8427 6.94093 10.7446C7.5191 10.6454 8.09851 10.5532 8.67722 10.4571C9.27568 10.3577 9.87417 10.2585 10.4722 10.1566C10.7293 10.1129 10.9852 10.0627 11.2417 10.0154C11.05 9.94939 10.8606 9.91538 10.6706 9.88428C10.1039 9.79147 9.53637 9.70356 8.97039 9.60675C8.23795 9.48148 7.50744 9.34532 6.77473 9.22152C6.04085 9.09753 5.30474 8.9861 4.5706 8.86348C3.74087 8.72489 2.91146 8.58415 2.08386 8.43406C1.92964 8.40609 1.73355 8.44045 1.69123 8.18587C1.61718 7.74042 1.50922 7.30009 1.40762 6.85935C1.15998 5.78508 0.907567 4.71187 0.65759 3.63811C0.446772 2.73257 0.222569 1.82966 0.0338644 0.919718C-0.0327572 0.598466 -0.0330045 0.252832 0.335899 0.0535399C0.344066 0.0491276 0.33738 0.018434 0.337622 0C0.564913 0 0.792204 0 1.03819 0Z" fill="white"/>
</svg>
